<svg width="20" height="21" viewBox="0 0 20 21" fill="none" xmlns="http://www.w3.org/2000/svg">
<path fill-rule="evenodd" clip-rule="evenodd" d="M9.99994 0.611572C4.4862 0.611572 0 5.09703 0 10.6116C0 16.1255 4.4862 20.611 9.99994 20.611C15.5138 20.611 20 16.1255 20 10.6116C20 5.09703 15.5138 0.611572 9.99994 0.611572ZM14.8076 11.3804H10.7692V15.611C10.7692 16.0363 10.4246 16.3809 9.99994 16.3809C9.57538 16.3809 9.2308 16.0363 9.2308 15.611V11.3804H5.1923C4.76772 11.3804 4.42301 11.0357 4.42301 10.6116C4.42301 10.1863 4.76772 9.84274 5.1923 9.84274H9.2308V5.99544C9.2308 5.57125 9.57538 5.22661 9.99994 5.22661C10.4246 5.22661 10.7692 5.57125 10.7692 5.99544V9.84274H14.8076C15.2323 9.84274 15.5769 10.1863 15.5769 10.6116C15.5769 11.0357 15.2323 11.3804 14.8076 11.3804Z" fill="#5A72EA"/>
</svg>
